<svg width="22" height="33" viewBox="0 0 22 33" fill="none" xmlns="http://www.w3.org/2000/svg">
<path fill-rule="evenodd" clip-rule="evenodd" d="M20.1281 7.86138L20.1463 7.8764L20.3292 8.02874L20.4762 8.15137L21.1267 8.69251L21.1279 23.8094C17.6632 26.6703 14.1767 29.505 10.6694 32.3128C10.4468 32.2907 4.66991 27.5395 1.73534 25.1259L1.65339 25.0585C0.901301 24.44 0.348499 23.9854 0.144071 23.8203L0.133789 8.70077L10.5817 0.140198C10.9222 0.188432 17.4445 5.62435 20.1281 7.86138ZM15.6165 10.9499L15.6047 10.9309L15.6029 10.9275L15.5865 10.9013C13.8695 8.12298 10.8617 3.25665 10.6044 3.07197L4.54199 12.7314L4.5556 19.4369L5.77461 21.4372C6.30836 21.5132 6.84665 21.6002 7.38675 21.6874C8.48237 21.8644 9.58525 22.0427 10.673 22.1331L11.3308 22.0349L12.124 21.9152C13.2444 21.7458 14.3651 21.5764 15.4877 21.4263L16.7106 19.527L16.71 12.7124C16.5642 12.4836 16.1566 11.8239 15.6165 10.9499ZM17.163 13.5235C17.5897 14.0568 17.9562 14.7108 18.3112 15.3443C18.4138 15.5268 18.5151 15.7076 18.6167 15.8833C18.6672 15.9707 18.7177 16.0568 18.7685 16.1413L18.565 16.4736L18.3536 16.8171C18.1691 17.1155 17.9837 17.4131 17.7968 17.7101L17.1515 18.757C17.1509 18.2537 17.1467 17.7493 17.1424 17.2446C17.1322 16.0035 17.1222 14.7602 17.163 13.5235ZM12.326 2.02826C11.8246 1.58786 11.2095 1.04788 10.8406 0.89051L10.8517 1.38676C10.8608 1.77647 10.8699 2.16626 10.8732 2.55587C12.7989 5.66366 14.7407 8.76159 16.6985 11.8494C16.6982 11.7544 16.694 11.6059 16.6888 11.4236V11.4143V11.4047V11.3997V11.3935C16.6655 10.5234 16.6232 8.94124 16.8452 8.70806C16.8509 8.70169 16.8573 8.69585 16.8642 8.69022L16.8809 8.67669L16.8975 8.66316L17.0931 8.74874C17.244 9.43624 17.2078 10.5088 17.1754 11.4643L17.1748 11.4782L17.173 11.5366C17.16 11.9347 17.1479 12.31 17.1515 12.6254C17.4089 13.0561 17.6729 13.4842 17.9372 13.9126C18.3962 14.6566 18.8556 15.4013 19.2814 16.1615L17.1545 19.5766L17.1597 21.7653V23.4506L20.687 23.4525L20.6794 8.90716C18.0941 6.73211 15.4834 4.58805 12.847 2.47554L12.7657 2.40896L12.691 2.34608C12.5815 2.25286 12.4578 2.14399 12.326 2.02826ZM10.3328 0.918067L10.3833 0.961368C10.4852 1.264 10.4568 1.73117 10.4323 2.13569C10.4232 2.28416 10.4148 2.42419 10.4132 2.54455L4.52929 11.9347C4.5308 11.7895 4.53504 11.6362 4.54078 11.4776L4.54623 11.332L4.55802 11.0476C4.58796 10.338 4.62001 9.57577 4.54109 8.97906C4.51901 8.81186 4.46911 8.75148 4.33968 8.65363L4.2036 8.67941C3.99796 8.99932 4.05693 10.9794 4.08899 12.0582L4.09836 12.3918C4.10108 12.4896 4.1029 12.571 4.1035 12.632C3.39738 13.7862 2.70093 14.946 2.01356 16.1114L4.10773 19.5456L4.09897 21.5095L4.09201 23.4532L0.575305 23.4481L0.588611 8.91491C2.68369 7.10768 4.8441 5.36386 7.00269 3.62167C8.11646 2.72288 9.22962 1.8245 10.3328 0.918067ZM8.07533 22.229C7.41366 22.111 6.7526 21.9932 6.09486 21.9399L6.60351 22.7565C7.95951 24.9327 9.31883 27.115 10.6156 29.324C11.273 28.2636 11.9241 27.1993 12.5676 26.1311C12.8588 25.6617 13.1476 25.1903 13.4364 24.7189C14.0083 23.7852 14.5807 22.8511 15.1719 21.9309C14.8036 21.9831 14.3654 22.0587 13.8991 22.1392C12.7418 22.3389 11.4103 22.5687 10.54 22.5449C9.72255 22.5226 8.89879 22.3757 8.07533 22.229ZM4.53262 21.7039L5.52875 21.8478C6.19647 22.9554 6.87568 24.0561 7.55489 25.1569L7.55761 25.1618L7.57575 25.1914C8.52773 26.735 9.47971 28.2787 10.4005 29.8414C10.3999 30.0848 10.4005 30.3283 10.4027 30.5719C10.4054 30.9209 10.4105 31.27 10.4184 31.6189L8.43278 29.9936L0.93759 23.8798C1.77859 23.8915 2.62049 23.889 3.46209 23.8864C3.81742 23.8853 4.17275 23.8843 4.52778 23.8843C4.54744 23.1583 4.53413 22.4305 4.53262 21.7039ZM16.4632 21.7368L16.426 21.7403L15.7365 21.8465L10.8602 29.7826L10.8412 31.6131C11.1554 31.357 11.4699 31.1017 11.7853 30.8472C12.1799 30.5285 12.5758 30.211 12.9722 29.8945C15.4399 27.9143 17.8876 25.9099 20.3153 23.8804L16.7151 23.8843C16.7172 23.7236 16.7239 23.5559 16.7309 23.385L16.7318 23.3702C16.7538 22.8393 16.7771 22.2777 16.671 21.7941C16.5763 21.723 16.5642 21.7245 16.4914 21.7334L16.4632 21.7368ZM4.10653 18.5402L4.10501 18.7033L3.58396 17.8521C3.3626 17.4451 3.11523 17.0461 2.86877 16.6489C2.75899 16.4717 2.64952 16.2949 2.54247 16.1179C2.84669 15.5469 3.18085 14.9885 3.51471 14.4308L3.76995 14.0039C3.85401 13.8622 3.93778 13.7203 4.02034 13.5782C4.19483 13.8437 4.14281 16.5844 4.1162 17.9852C4.11197 18.21 4.10834 18.4002 4.10653 18.5402ZM16.237 21.2554L16.3274 21.094C16.4865 20.8089 16.6465 20.5224 16.8527 20.2685C16.8712 20.5308 16.8518 20.8878 16.8046 21.1026C16.5461 21.1975 16.4412 21.2311 16.237 21.2554ZM4.55863 20.3581C4.80388 20.6601 4.98321 21.008 5.17403 21.3451C5.10387 21.3367 5.07181 21.3341 5.04036 21.3281C4.98048 21.3166 4.92303 21.2926 4.60641 21.1922C4.55863 20.8878 4.53988 20.6204 4.55863 20.3581Z" fill="black"/>
<path d="M15.6047 10.9309L15.6165 10.9499C16.1566 11.8239 16.5642 12.4836 16.71 12.7124L16.7106 19.527L15.4877 21.4263C14.3651 21.5764 13.2444 21.7458 12.124 21.9152L11.3308 22.0349L10.673 22.1331C9.58525 22.0427 8.48237 21.8644 7.38675 21.6874C6.84665 21.6002 6.30836 21.5132 5.77461 21.4372L4.5556 19.4369L4.54199 12.7314L10.6044 3.07197M15.6047 10.9309L15.6029 10.9275L15.5865 10.9013C13.8695 8.12298 10.8617 3.25665 10.6044 3.07197M15.6047 10.9309C15.1759 10.2368 14.6645 9.40935 14.135 8.55597C12.5486 5.99996 10.7979 3.21093 10.6044 3.07197M16.6985 11.8494C14.7407 8.76159 12.7989 5.66366 10.8732 2.55587C10.8699 2.16626 10.8608 1.77647 10.8517 1.38676L10.8406 0.89051C11.2095 1.04788 11.8246 1.58786 12.326 2.02826C12.4578 2.14399 12.5815 2.25286 12.691 2.34608L12.7657 2.40896L12.847 2.47554C15.4834 4.58805 18.0941 6.73211 20.6794 8.90716L20.687 23.4525L17.1597 23.4506V21.7653L17.1545 19.5766L19.2814 16.1615C18.8556 15.4013 18.3962 14.6566 17.9372 13.9126C17.6729 13.4842 17.4089 13.0561 17.1515 12.6254M16.6985 11.8494C16.6982 11.7544 16.694 11.6059 16.6888 11.4236M16.6985 11.8494C16.6985 11.8479 16.6985 11.8464 16.6985 11.8449C16.6985 11.7498 16.694 11.603 16.6888 11.4236M16.6888 11.4236V11.4143V11.4047V11.3997V11.3935C16.6655 10.5234 16.6232 8.94124 16.8452 8.70806C16.8509 8.70169 16.8573 8.69585 16.8642 8.69022L16.8809 8.67669L16.8975 8.66316L17.0931 8.74874C17.244 9.43624 17.2078 10.5088 17.1754 11.4643M17.1754 11.4643L17.1748 11.4782L17.173 11.5366C17.16 11.9347 17.1479 12.31 17.1515 12.6254M17.1754 11.4643C17.1733 11.5266 17.1715 11.5894 17.1693 11.6506C17.1579 12.0062 17.1482 12.3403 17.1515 12.6254M5.04036 21.3281C5.07181 21.3341 5.10387 21.3367 5.17403 21.3451C4.98321 21.008 4.80388 20.6601 4.55863 20.3581C4.53988 20.6204 4.55863 20.8878 4.60641 21.1922M5.04036 21.3281C4.98048 21.3166 4.92303 21.2926 4.60641 21.1922M5.04036 21.3281C4.98109 21.3167 4.92545 21.2935 4.6182 21.196C4.61427 21.1947 4.61034 21.1935 4.60641 21.1922M20.1281 7.86138L20.1463 7.8764L20.3292 8.02874L20.4762 8.15137L21.1267 8.69251L21.1279 23.8094C17.6632 26.6703 14.1767 29.505 10.6694 32.3128C10.4468 32.2907 4.66991 27.5395 1.73534 25.1259L1.65339 25.0585C0.901301 24.44 0.348499 23.9854 0.144071 23.8203L0.133789 8.70077L10.5817 0.140198C10.9222 0.188432 17.4445 5.62435 20.1281 7.86138ZM17.163 13.5235C17.5897 14.0568 17.9562 14.7108 18.3112 15.3443C18.4138 15.5268 18.5151 15.7076 18.6167 15.8833C18.6672 15.9707 18.7177 16.0568 18.7685 16.1413L18.565 16.4736L18.3536 16.8171C18.1691 17.1155 17.9837 17.4131 17.7968 17.7101L17.1515 18.757C17.1509 18.2537 17.1467 17.7493 17.1424 17.2446C17.1322 16.0035 17.1222 14.7602 17.163 13.5235ZM10.3328 0.918067L10.3833 0.961368C10.4852 1.264 10.4568 1.73117 10.4323 2.13569C10.4232 2.28416 10.4148 2.42419 10.4132 2.54455L4.52929 11.9347C4.5308 11.7895 4.53504 11.6362 4.54078 11.4776L4.54623 11.332L4.55802 11.0476C4.58796 10.338 4.62001 9.57577 4.54109 8.97906C4.51901 8.81186 4.46911 8.75148 4.33968 8.65363L4.2036 8.67941C3.99796 8.99932 4.05693 10.9794 4.08899 12.0582L4.09836 12.3918C4.10108 12.4896 4.1029 12.571 4.1035 12.632C3.39738 13.7862 2.70093 14.946 2.01356 16.1114L4.10773 19.5456L4.09897 21.5095L4.09201 23.4532L0.575305 23.4481L0.588611 8.91491C2.68369 7.10768 4.8441 5.36386 7.00269 3.62167C8.11646 2.72288 9.22962 1.8245 10.3328 0.918067ZM8.07533 22.229C7.41366 22.111 6.7526 21.9932 6.09486 21.9399L6.60351 22.7565C7.95951 24.9327 9.31883 27.115 10.6156 29.324C11.273 28.2636 11.9241 27.1993 12.5676 26.1311C12.8588 25.6617 13.1476 25.1903 13.4364 24.7189C14.0083 23.7852 14.5807 22.8511 15.1719 21.9309C14.8036 21.9831 14.3654 22.0587 13.8991 22.1392C12.7418 22.3389 11.4103 22.5687 10.54 22.5449C9.72255 22.5226 8.89879 22.3757 8.07533 22.229ZM4.53262 21.7039L5.52875 21.8478C6.19647 22.9554 6.87568 24.0561 7.55489 25.1569L7.55761 25.1618L7.57575 25.1914C8.52773 26.735 9.47971 28.2787 10.4005 29.8414C10.3999 30.0848 10.4005 30.3283 10.4027 30.5719C10.4054 30.9209 10.4105 31.27 10.4184 31.6189L8.43278 29.9936L0.93759 23.8798C1.77859 23.8915 2.62049 23.889 3.46209 23.8864C3.81742 23.8853 4.17275 23.8843 4.52778 23.8843C4.54744 23.1583 4.53413 22.4305 4.53262 21.7039ZM16.4632 21.7368L16.426 21.7403L15.7365 21.8465L10.8602 29.7826L10.8412 31.6131C11.1554 31.357 11.4699 31.1017 11.7853 30.8472C12.1799 30.5285 12.5758 30.211 12.9722 29.8945C15.4399 27.9143 17.8876 25.9099 20.3153 23.8804L16.7151 23.8843C16.7172 23.7236 16.7239 23.5559 16.7309 23.385L16.7318 23.3702C16.7538 22.8393 16.7771 22.2777 16.671 21.7941C16.5763 21.723 16.5642 21.7245 16.4914 21.7334L16.4632 21.7368ZM4.10653 18.5402L4.10501 18.7033L3.58396 17.8521C3.3626 17.4451 3.11523 17.0461 2.86877 16.6489C2.75899 16.4717 2.64952 16.2949 2.54247 16.1179C2.84669 15.5469 3.18085 14.9885 3.51471 14.4308L3.76995 14.0039C3.85401 13.8622 3.93778 13.7203 4.02034 13.5782C4.19483 13.8437 4.14281 16.5844 4.1162 17.9852C4.11197 18.21 4.10834 18.4002 4.10653 18.5402ZM16.237 21.2554L16.3274 21.094C16.4865 20.8089 16.6465 20.5224 16.8527 20.2685C16.8712 20.5308 16.8518 20.8878 16.8046 21.1026C16.5461 21.1975 16.4412 21.2311 16.237 21.2554Z" stroke="black" stroke-width="0.266667"/>
<path fill-rule="evenodd" clip-rule="evenodd" d="M15.6161 10.9498C15.402 10.6036 15.1673 10.2238 14.9199 9.82373C15.1628 10.2165 15.3935 10.5898 15.6043 10.9309L15.6161 10.9498Z" fill="black" stroke="black" stroke-width="0.266667"/>
<path fill-rule="evenodd" clip-rule="evenodd" d="M16.6982 11.8493C16.6979 11.7511 16.6936 11.5954 16.6885 11.4046V11.4142C16.6936 11.6007 16.6979 11.7527 16.6982 11.8493Z" fill="black"/>
<path d="M16.6885 11.4142V11.4046C16.6936 11.5954 16.6979 11.7511 16.6982 11.8493C16.6979 11.7527 16.6936 11.6007 16.6885 11.4142ZM16.6885 11.4142V11.4235C16.6936 11.6029 16.6982 11.7496 16.6982 11.8448" stroke="black" stroke-width="0.266667"/>
<path fill-rule="evenodd" clip-rule="evenodd" d="M4.5446 11.3729C4.53704 11.5688 4.53099 11.7578 4.52917 11.9347C4.53069 11.7895 4.53492 11.6361 4.54067 11.4775C4.54187 11.4432 4.54339 11.4076 4.5446 11.3729ZM4.10338 12.632C4.10248 12.5108 4.09643 12.3087 4.08887 12.0581L4.09824 12.3917C4.10096 12.4895 4.10278 12.571 4.10338 12.632Z" fill="black" stroke="black" stroke-width="0.266667"/>
<path fill-rule="evenodd" clip-rule="evenodd" d="M16.7168 23.7818C16.7201 23.648 16.7259 23.5102 16.7316 23.3701L16.7307 23.3849C16.7253 23.5203 16.7198 23.6524 16.7168 23.7818Z" fill="black"/>
<path d="M16.7307 23.3849L16.7316 23.3701C16.7259 23.5102 16.7201 23.648 16.7168 23.7818C16.7198 23.6524 16.7253 23.5203 16.7307 23.3849ZM16.7307 23.3849C16.7271 23.4722 16.7234 23.5581 16.7207 23.6431C16.7192 23.6863 16.718 23.7296 16.7171 23.772" stroke="black" stroke-width="0.266667"/>
<path fill-rule="evenodd" clip-rule="evenodd" d="M4.02018 13.5781C3.92069 13.7494 3.81968 13.9203 3.71777 14.091L3.76979 14.0038C3.85386 13.8621 3.93762 13.7202 4.02018 13.5781ZM4.10486 18.7032C4.10486 18.5318 4.11302 18.1463 4.12209 17.6594C4.11998 17.774 4.11786 17.8831 4.11604 17.985C4.10969 18.316 4.10486 18.5722 4.10486 18.7032Z" fill="black" stroke="black" stroke-width="0.266667"/>
</svg>
