<svg aria-hidden="true" style="position: absolute; width: 0; height: 0; overflow: hidden;" version="1.1" xmlns="http://www.w3.org/2000/svg" xmlns:xlink="http://www.w3.org/1999/xlink">
<defs>
    <symbol id="icon-Company-Logo" viewBox="0 0 56 24">
        <path d="M12.33 7.527l0.009 0.007 0.49 0.408 0.001 7.558c-1.732 1.43-3.476 2.848-5.229 4.252-0.111-0.011-3-2.387-4.467-3.593l-0.041-0.034c-0.376-0.309-0.652-0.537-0.755-0.619l-0.005-7.56 5.224-4.28c0.17 0.024 3.431 2.742 4.773 3.861zM10.075 9.071l-0.006-0.009-0.001-0.002-0.008-0.013c-0.859-1.389-2.362-3.822-2.491-3.915l-3.031 4.83 0.007 3.353 0.61 1c0.267 0.038 0.536 0.081 0.806 0.125 0.548 0.089 1.099 0.178 1.643 0.223l0.726-0.109c0.56-0.085 1.121-0.169 1.682-0.244l0.611-0.95-0-3.407c-0.073-0.114-0.277-0.444-0.547-0.881zM10.848 10.358c-0.020 0.618-0.015 1.24-0.010 1.861 0.002 0.252 0.004 0.505 0.005 0.756l0.323-0.523c0.093-0.148 0.186-0.297 0.278-0.446l0.106-0.172 0.102-0.166c-0.025-0.042-0.051-0.085-0.076-0.129-0.051-0.088-0.101-0.178-0.153-0.27-0.178-0.317-0.361-0.644-0.574-0.91zM8.429 4.611c-0.251-0.22-0.558-0.49-0.743-0.569l0.006 0.248c0.005 0.195 0.009 0.39 0.011 0.585 0.963 1.554 1.934 3.103 2.913 4.647-0-0.047-0.002-0.122-0.005-0.213v-0.015c-0.012-0.435-0.033-1.226 0.078-1.343 0.003-0.003 0.006-0.006 0.010-0.009l0.008-0.007 0.008-0.007 0.098 0.043c0.075 0.344 0.057 0.88 0.041 1.358l-0 0.007-0.001 0.029c-0.006 0.199-0.013 0.387-0.011 0.544 0.129 0.215 0.261 0.429 0.393 0.644 0.23 0.372 0.459 0.744 0.672 1.124l-1.063 1.708 0.003 1.094v0.843l1.764 0.001-0.004-7.273c-1.293-1.088-2.598-2.16-3.916-3.216l-0.041-0.033-0.037-0.031c-0.055-0.047-0.117-0.101-0.183-0.159zM7.433 4.056c-0.552 0.453-1.108 0.902-1.665 1.352-1.079 0.871-2.16 1.743-3.207 2.647l-0.007 7.267 1.758 0.003 0.003-0.972 0.004-0.982-1.047-1.717c0.344-0.583 0.692-1.163 1.045-1.74-0-0.030-0.001-0.071-0.003-0.12l-0.005-0.167c-0.016-0.539-0.046-1.529 0.057-1.689l0.068-0.013c0.065 0.049 0.090 0.079 0.101 0.163 0.039 0.298 0.023 0.679 0.008 1.034l-0.006 0.142-0.003 0.073c-0.003 0.079-0.005 0.156-0.006 0.229l2.942-4.695c0.001-0.060 0.005-0.13 0.010-0.204 0.012-0.202 0.026-0.436-0.025-0.587l-0.025-0.022zM6.304 14.711c-0.331-0.059-0.661-0.118-0.99-0.145l0.254 0.408c0.678 1.088 1.358 2.179 2.006 3.284 0.329-0.53 0.654-1.062 0.976-1.596 0.146-0.235 0.29-0.47 0.434-0.706 0.286-0.467 0.572-0.934 0.868-1.394-0.184 0.026-0.403 0.064-0.636 0.104-0.579 0.1-1.244 0.215-1.68 0.203-0.409-0.011-0.821-0.085-1.232-0.158zM4.533 14.448c0.001 0.363 0.007 0.727-0.002 1.090-0.177 0-0.355 0.001-0.533 0.001-0.421 0.001-0.842 0.003-1.262-0.003l4.74 3.87c-0.004-0.174-0.006-0.349-0.008-0.524-0.001-0.122-0.001-0.244-0.001-0.365-0.46-0.781-0.936-1.553-1.412-2.325l-0.009-0.015-0.001-0.002c-0.34-0.55-0.679-1.101-1.013-1.655l-0.498-0.072zM10.498 14.465l-0.019 0.002-0.345 0.053-2.438 3.968-0.010 0.915c0.157-0.128 0.314-0.256 0.472-0.383 0.197-0.159 0.395-0.318 0.594-0.476 1.234-0.99 2.458-1.992 3.672-3.007l-1.8 0.002c0.001-0.080 0.004-0.164 0.008-0.25l0-0.007c0.011-0.265 0.023-0.546-0.030-0.788-0.047-0.036-0.053-0.035-0.090-0.030l-0.014 0.002zM4.32 12.867c0.001-0.070 0.003-0.165 0.005-0.278 0.013-0.7 0.039-2.071-0.048-2.203-0.041 0.071-0.083 0.142-0.125 0.213l-0.128 0.213c-0.167 0.279-0.334 0.558-0.486 0.844 0.054 0.088 0.108 0.177 0.163 0.265 0.123 0.199 0.247 0.398 0.358 0.602l0.261 0.426 0.001-0.082zM10.385 14.224c0.102-0.012 0.155-0.029 0.284-0.076 0.024-0.107 0.033-0.286 0.024-0.417-0.103 0.127-0.183 0.27-0.263 0.413l-0.045 0.081zM4.546 13.776c-0.009 0.131 0 0.265 0.024 0.417 0.158 0.050 0.187 0.062 0.217 0.068 0.016 0.003 0.032 0.004 0.067 0.009-0.095-0.169-0.185-0.342-0.308-0.493z"></path>
        <path d="M10.075 9.071c-0.107-0.173-0.224-0.363-0.348-0.563 0.121 0.196 0.237 0.383 0.342 0.554l0.006 0.009z"></path>
        <path d="M10.616 9.521c-0-0.049-0.002-0.127-0.005-0.222v0.005c0.003 0.093 0.005 0.169 0.005 0.218z"></path>
        <path d="M4.539 9.283c-0.004 0.098-0.007 0.192-0.008 0.281 0.001-0.073 0.003-0.149 0.006-0.229 0.001-0.017 0.001-0.035 0.002-0.052zM4.318 9.913c-0-0.061-0.003-0.162-0.007-0.287l0.005 0.167c0.001 0.049 0.002 0.090 0.003 0.12z"></path>
        <path d="M10.625 15.487c0.002-0.067 0.005-0.136 0.007-0.206l-0 0.007c-0.003 0.068-0.005 0.134-0.007 0.198z"></path>
        <path d="M4.276 10.386c-0.050 0.086-0.1 0.171-0.151 0.257l0.026-0.044c0.042-0.071 0.084-0.142 0.125-0.213zM4.319 12.948c0-0.086 0.004-0.278 0.009-0.522-0.001 0.057-0.002 0.112-0.003 0.163-0.003 0.165-0.006 0.294-0.006 0.359z"></path>
        <path d="M37.147 18.656v-0.5h0.508c0.174 0 0.323-0.022 0.448-0.067 0.124-0.040 0.229-0.112 0.314-0.217s0.157-0.249 0.217-0.433l1.329-4.271h0.545l-1.389 4.428c-0.080 0.254-0.189 0.458-0.329 0.612-0.14 0.159-0.306 0.274-0.5 0.343s-0.416 0.105-0.665 0.105h-0.478zM38.431 17.020v-0.47h0.709v0.47h-0.709zM38.364 17.020l-1.434-3.853h0.575l1.381 3.853h-0.523z"></path>
        <path d="M34.429 17.117v-3.95h0.448v1.65h-0.045c0-0.577 0.127-1.003 0.381-1.277 0.254-0.279 0.652-0.418 1.195-0.418h0.127v0.508h-0.231c-0.428 0-0.754 0.112-0.978 0.336-0.224 0.219-0.336 0.543-0.336 0.971v2.18h-0.56z"></path>
        <path d="M32.493 17.118v-5.451h0.56v5.451h-0.56zM31.918 12.122v-0.455h1.135v0.455h-1.135z"></path>
        <path d="M29.63 17.244c-0.339 0-0.632-0.057-0.881-0.172-0.249-0.119-0.453-0.276-0.612-0.47-0.159-0.199-0.279-0.421-0.358-0.665-0.075-0.244-0.112-0.495-0.112-0.754v-0.105c0-0.254 0.037-0.503 0.112-0.747 0.080-0.244 0.199-0.463 0.358-0.657s0.358-0.348 0.597-0.463c0.244-0.119 0.527-0.179 0.851-0.179 0.413 0 0.757 0.092 1.030 0.276 0.279 0.184 0.488 0.421 0.627 0.709 0.14 0.284 0.209 0.59 0.209 0.918v0.291h-3.532v-0.433h3.143l-0.142 0.217c0-0.294-0.052-0.55-0.157-0.769-0.1-0.224-0.249-0.398-0.448-0.523-0.194-0.129-0.438-0.194-0.732-0.194-0.309 0-0.565 0.072-0.769 0.217s-0.358 0.336-0.463 0.575c-0.1 0.239-0.149 0.51-0.149 0.814 0 0.299 0.050 0.572 0.149 0.821 0.105 0.244 0.261 0.438 0.47 0.582 0.214 0.144 0.483 0.217 0.806 0.217 0.343 0 0.622-0.077 0.836-0.231 0.214-0.159 0.346-0.346 0.396-0.56h0.523c-0.050 0.264-0.154 0.493-0.314 0.687-0.159 0.189-0.361 0.336-0.605 0.441s-0.523 0.157-0.836 0.157z"></path>
        <path d="M19.456 17.564c-0.339 0-0.632-0.057-0.881-0.172-0.249-0.119-0.453-0.276-0.612-0.47-0.159-0.199-0.279-0.421-0.358-0.665-0.075-0.244-0.112-0.495-0.112-0.754v-0.105c0-0.254 0.037-0.503 0.112-0.747 0.080-0.244 0.199-0.463 0.358-0.657s0.358-0.348 0.597-0.463c0.244-0.119 0.528-0.179 0.851-0.179 0.413 0 0.757 0.092 1.030 0.276 0.279 0.184 0.488 0.421 0.627 0.709 0.139 0.284 0.209 0.59 0.209 0.918v0.291h-3.532v-0.433h3.143l-0.142 0.217c0-0.294-0.052-0.55-0.157-0.769-0.1-0.224-0.249-0.398-0.448-0.523-0.194-0.129-0.438-0.194-0.732-0.194-0.309 0-0.565 0.072-0.769 0.217s-0.358 0.336-0.463 0.575c-0.1 0.239-0.149 0.51-0.149 0.814 0 0.299 0.050 0.572 0.149 0.821 0.105 0.244 0.261 0.438 0.47 0.582 0.214 0.144 0.483 0.217 0.806 0.217 0.343 0 0.622-0.077 0.836-0.231 0.214-0.159 0.346-0.346 0.396-0.56h0.523c-0.050 0.264-0.154 0.493-0.314 0.687-0.159 0.189-0.361 0.336-0.605 0.441s-0.523 0.157-0.836 0.157z"></path>
        <path d="M14.844 18.953v-0.5h0.448c0.194 0 0.341-0.057 0.441-0.172 0.105-0.109 0.157-0.269 0.157-0.478v-4.316h0.538v4.211c0 0.309-0.042 0.555-0.127 0.739-0.080 0.184-0.209 0.316-0.388 0.396s-0.418 0.119-0.717 0.119h-0.351zM15.247 13.935v-0.448h1.18v0.448h-1.18zM15.994 12.688c-0.134 0-0.236-0.035-0.306-0.105-0.065-0.075-0.097-0.167-0.097-0.276s0.032-0.199 0.097-0.269c0.070-0.075 0.172-0.112 0.306-0.112s0.234 0.037 0.299 0.112c0.065 0.070 0.097 0.159 0.097 0.269s-0.032 0.202-0.097 0.276c-0.065 0.070-0.164 0.105-0.299 0.105z"></path>
        <path d="M52.090 11.202c-0.339 0-0.632-0.057-0.881-0.172-0.249-0.119-0.453-0.276-0.612-0.47-0.159-0.199-0.279-0.421-0.358-0.665-0.075-0.244-0.112-0.495-0.112-0.754v-0.105c0-0.254 0.037-0.503 0.112-0.747 0.079-0.244 0.199-0.463 0.358-0.657s0.358-0.348 0.597-0.463c0.244-0.119 0.528-0.179 0.851-0.179 0.413 0 0.757 0.092 1.030 0.276 0.279 0.184 0.488 0.421 0.627 0.709 0.139 0.284 0.209 0.59 0.209 0.918v0.291h-3.532v-0.433h3.143l-0.142 0.217c0-0.294-0.052-0.55-0.157-0.769-0.1-0.224-0.249-0.398-0.448-0.523-0.194-0.129-0.438-0.194-0.732-0.194-0.308 0-0.565 0.072-0.769 0.217s-0.358 0.336-0.463 0.575c-0.099 0.239-0.149 0.51-0.149 0.814 0 0.299 0.050 0.572 0.149 0.821 0.105 0.244 0.261 0.438 0.47 0.582 0.214 0.144 0.483 0.217 0.806 0.217 0.343 0 0.622-0.077 0.836-0.231 0.214-0.159 0.346-0.346 0.396-0.56h0.523c-0.050 0.264-0.154 0.493-0.314 0.687-0.159 0.189-0.361 0.336-0.605 0.441s-0.523 0.157-0.836 0.157z"></path>
        <path d="M47.031 11.202c-0.289 0-0.553-0.052-0.791-0.157-0.234-0.11-0.438-0.259-0.612-0.448-0.169-0.194-0.301-0.413-0.396-0.657-0.090-0.249-0.134-0.513-0.134-0.791v-0.105c0-0.269 0.045-0.525 0.134-0.769 0.090-0.249 0.217-0.468 0.381-0.657 0.169-0.194 0.371-0.346 0.605-0.455 0.239-0.114 0.505-0.172 0.799-0.172 0.334 0 0.627 0.072 0.881 0.217s0.458 0.353 0.612 0.627c0.154 0.269 0.236 0.6 0.246 0.993l-0.246-0.463v-2.74h0.56v5.451h-0.448v-1.755h0.179c-0.010 0.413-0.097 0.762-0.261 1.045-0.159 0.279-0.371 0.488-0.635 0.627-0.259 0.139-0.55 0.209-0.874 0.209zM47.105 10.709c0.269 0 0.51-0.060 0.724-0.179 0.219-0.119 0.391-0.289 0.515-0.508 0.125-0.224 0.187-0.48 0.187-0.769v-0.358c0-0.279-0.062-0.523-0.187-0.732-0.124-0.214-0.296-0.381-0.515-0.5-0.214-0.119-0.458-0.179-0.732-0.179-0.294 0-0.55 0.072-0.769 0.217-0.214 0.139-0.381 0.331-0.5 0.575-0.115 0.244-0.172 0.518-0.172 0.821 0 0.314 0.060 0.592 0.179 0.836s0.289 0.436 0.508 0.575c0.219 0.134 0.473 0.202 0.762 0.202z"></path>
        <path d="M43.638 11.075v-1.187h-0.090v-1.404c0-0.294-0.077-0.518-0.231-0.672-0.154-0.159-0.393-0.239-0.717-0.239-0.149 0-0.301 0.002-0.455 0.007-0.149 0.005-0.294 0.012-0.433 0.022-0.134 0.005-0.254 0.012-0.358 0.022v-0.493c0.11-0.010 0.222-0.020 0.336-0.030s0.231-0.015 0.351-0.015c0.124-0.005 0.244-0.007 0.358-0.007 0.403 0 0.727 0.050 0.971 0.149 0.249 0.1 0.431 0.256 0.545 0.47 0.115 0.209 0.172 0.488 0.172 0.836v2.539h-0.448zM42.302 11.18c-0.279 0-0.525-0.050-0.739-0.149s-0.381-0.244-0.5-0.433c-0.115-0.189-0.172-0.418-0.172-0.687 0-0.264 0.060-0.488 0.179-0.672 0.124-0.184 0.301-0.324 0.53-0.418 0.234-0.1 0.515-0.149 0.844-0.149h1.157v0.426h-1.195c-0.314 0-0.555 0.077-0.724 0.231-0.164 0.149-0.246 0.346-0.246 0.59 0 0.249 0.087 0.448 0.261 0.597 0.174 0.144 0.411 0.217 0.709 0.217 0.184 0 0.361-0.032 0.53-0.097 0.169-0.070 0.311-0.184 0.426-0.343 0.115-0.164 0.177-0.388 0.187-0.672l0.164 0.231c-0.020 0.294-0.090 0.54-0.209 0.739-0.119 0.194-0.281 0.341-0.485 0.441s-0.443 0.149-0.717 0.149z"></path>
        <path d="M34.126 11.075v-3.957h0.448v1.665h-0.090c0-0.363 0.050-0.677 0.149-0.941 0.105-0.264 0.259-0.468 0.463-0.612 0.204-0.149 0.463-0.224 0.777-0.224h0.022c0.314 0 0.573 0.072 0.777 0.217s0.356 0.348 0.455 0.612c0.1 0.264 0.149 0.58 0.149 0.948h-0.179c0-0.363 0.050-0.677 0.149-0.941 0.105-0.264 0.259-0.468 0.463-0.612 0.209-0.149 0.47-0.224 0.784-0.224h0.022c0.314 0 0.572 0.072 0.777 0.217 0.209 0.144 0.363 0.348 0.463 0.612 0.105 0.264 0.157 0.58 0.157 0.948v2.292h-0.56v-2.419c0-0.348-0.084-0.625-0.254-0.829s-0.413-0.306-0.732-0.306c-0.329 0-0.59 0.107-0.784 0.321-0.189 0.209-0.284 0.493-0.284 0.851v2.382h-0.56v-2.419c0-0.348-0.085-0.625-0.254-0.829s-0.413-0.306-0.732-0.306c-0.329 0-0.59 0.107-0.784 0.321-0.189 0.209-0.284 0.493-0.284 0.851v2.382h-0.56z"></path>
        <path d="M30.717 11.202c-0.289 0-0.553-0.052-0.791-0.157-0.234-0.11-0.438-0.259-0.612-0.448-0.169-0.194-0.301-0.413-0.396-0.657-0.090-0.249-0.134-0.513-0.134-0.791v-0.105c0-0.269 0.045-0.525 0.134-0.769 0.090-0.249 0.217-0.468 0.381-0.657 0.169-0.194 0.371-0.346 0.605-0.455 0.239-0.114 0.505-0.172 0.799-0.172 0.334 0 0.627 0.072 0.881 0.217s0.458 0.353 0.612 0.627c0.154 0.269 0.236 0.6 0.246 0.993l-0.246-0.463v-2.74h0.56v5.451h-0.448v-1.755h0.179c-0.010 0.413-0.097 0.762-0.261 1.045-0.159 0.279-0.371 0.488-0.635 0.627-0.259 0.139-0.55 0.209-0.874 0.209zM30.792 10.709c0.269 0 0.51-0.060 0.724-0.179 0.219-0.119 0.391-0.289 0.515-0.508 0.124-0.224 0.187-0.48 0.187-0.769v-0.358c0-0.279-0.062-0.523-0.187-0.732-0.125-0.214-0.296-0.381-0.515-0.5-0.214-0.119-0.458-0.179-0.732-0.179-0.294 0-0.55 0.072-0.769 0.217-0.214 0.139-0.381 0.331-0.5 0.575-0.115 0.244-0.172 0.518-0.172 0.821 0 0.314 0.060 0.592 0.179 0.836s0.289 0.436 0.508 0.575c0.219 0.134 0.473 0.202 0.762 0.202z"></path>
        <path d="M24.432 11.075v-3.95h0.448v1.658h-0.090c0-0.368 0.055-0.684 0.164-0.948s0.274-0.468 0.493-0.612c0.219-0.144 0.495-0.217 0.829-0.217h0.022c0.498 0 0.869 0.157 1.113 0.47 0.244 0.309 0.366 0.744 0.366 1.307v2.292h-0.553v-2.412c0-0.343-0.095-0.62-0.284-0.829s-0.453-0.314-0.791-0.314c-0.348 0-0.63 0.11-0.844 0.329-0.209 0.214-0.314 0.498-0.314 0.851v2.374h-0.56z"></path>
        <path d="M22.66 11.075v-1.187h-0.090v-1.404c0-0.294-0.077-0.518-0.231-0.672-0.154-0.159-0.393-0.239-0.717-0.239-0.149 0-0.301 0.002-0.455 0.007-0.149 0.005-0.294 0.012-0.433 0.022-0.134 0.005-0.254 0.012-0.358 0.022v-0.493c0.11-0.010 0.222-0.020 0.336-0.030s0.231-0.015 0.351-0.015c0.124-0.005 0.244-0.007 0.358-0.007 0.403 0 0.727 0.050 0.971 0.149 0.249 0.1 0.431 0.256 0.545 0.47 0.114 0.209 0.172 0.488 0.172 0.836v2.539h-0.448zM21.323 11.18c-0.279 0-0.525-0.050-0.739-0.149s-0.381-0.244-0.5-0.433c-0.114-0.189-0.172-0.418-0.172-0.687 0-0.264 0.060-0.488 0.179-0.672 0.124-0.184 0.301-0.324 0.53-0.418 0.234-0.1 0.515-0.149 0.844-0.149h1.157v0.426h-1.195c-0.314 0-0.555 0.077-0.724 0.231-0.164 0.149-0.246 0.346-0.246 0.59 0 0.249 0.087 0.448 0.261 0.597 0.174 0.144 0.411 0.217 0.709 0.217 0.184 0 0.361-0.032 0.53-0.097 0.169-0.070 0.311-0.184 0.426-0.343 0.114-0.164 0.177-0.388 0.187-0.672l0.164 0.231c-0.020 0.294-0.090 0.54-0.209 0.739-0.119 0.194-0.281 0.341-0.485 0.441s-0.443 0.149-0.717 0.149z"></path>
        <path d="M15.591 11.075v-5.451h0.56v3.084l-0.164 0.127c0-0.368 0.052-0.689 0.157-0.963 0.11-0.274 0.271-0.485 0.485-0.635 0.219-0.154 0.493-0.231 0.821-0.231h0.030c0.478 0 0.839 0.157 1.083 0.47 0.249 0.314 0.373 0.749 0.373 1.307v2.292h-0.553v-2.412c0-0.353-0.097-0.632-0.291-0.836s-0.455-0.306-0.784-0.306c-0.353 0-0.635 0.114-0.844 0.343-0.209 0.224-0.314 0.52-0.314 0.889v2.322h-0.56z"></path>
        <path d="M23.365 17l0.783-3.55h0.728l0.908 3.55h-0.451l-0.908-3.529h0.166l-0.79 3.529h-0.437zM23.067 17v-0.423h0.631v0.423h-0.631zM22.942 17l-1.061-3.668h0.499l1.047 3.668h-0.485zM25.452 17v-0.423h0.617v0.423h-0.617zM25.722 17l0.915-3.668h0.478l-0.936 3.668h-0.458z"></path>
    </symbol>
    <symbol id="icon-book" viewBox="0 0 24 24">
        <path d="M6 22h15v-2h-14.988c-0.462-0.012-1.012-0.195-1.012-1s0.55-0.988 1.012-1h14.988v-14c0-1.103-0.897-2-2-2h-13c-1.206 0-3 0.799-3 3v14c0 2.201 1.794 3 3 3zM5 5c0-0.805 0.55-0.988 1-1h13v12h-14v-11z"></path>
        <path d="M8 6h9v2h-9v-2z"></path>
    </symbol>
    <symbol id="icon-donate-heart" viewBox="0 0 24 24">
        <path d="M4 21h9.62c0.577 0 1.147-0.124 1.672-0.366s0.99-0.593 1.365-1.031l5.102-5.952c0.107-0.124 0.181-0.273 0.217-0.433s0.032-0.327-0.012-0.485c-0.044-0.158-0.126-0.303-0.238-0.422s-0.253-0.208-0.409-0.26l-1.968-0.656c-0.476-0.155-0.982-0.19-1.474-0.102s-0.956 0.295-1.349 0.605l-3.185 2.547-0.617-1.235c-0.33-0.666-0.841-1.226-1.473-1.616s-1.361-0.596-2.105-0.594h-5.146c-1.103 0-2 0.897-2 2v6c0 1.103 0.897 2 2 2zM4 13h5.146c0.763 0 1.448 0.423 1.789 1.105l0.447 0.895h-4.382v2h6.014c0.154-0.002 0.305-0.040 0.442-0.11l0.003-0.001 0.004-0.002h0.003l0.002-0.001h0.004l0.001-0.001c0.009 0.003 0.003-0.001 0.003-0.001 0.010 0 0.002-0.001 0.002-0.001h0.001l0.002-0.001 0.003-0.001 0.004-0.002 0.003-0.001 0.002-0.001c0.003 0 0.002-0.001 0.002-0.001l0.003-0.002 0.004-0.002 0.003-0.001 0.002-0.001h0.001l0.002-0.001 0.003-0.001 0.002-0.001c0.009-0.001 0.003-0.001 0.003-0.001l0.002-0.001c0.039-0.023 0.075-0.049 0.11-0.078l4.146-3.317c0.262-0.208 0.623-0.273 0.94-0.167l0.557 0.186-4.133 4.823c-0.19 0.216-0.424 0.389-0.686 0.507s-0.546 0.18-0.834 0.18h-9.62v-6zM15.983 2c-0.163 0.002-1.006 0.039-1.983 0.705-0.951-0.648-1.774-0.7-1.968-0.704l-0.030-0.001h-0.004c-0.801 0-1.555 0.313-2.119 0.878-0.566 0.567-0.879 1.32-0.879 2.122s0.313 1.555 0.861 2.104l3.414 3.586c0.094 0.098 0.207 0.175 0.331 0.228s0.259 0.080 0.394 0.080c0.135-0 0.269-0.027 0.394-0.081s0.237-0.131 0.331-0.228l3.396-3.568c0.567-0.566 0.879-1.319 0.879-2.121s-0.313-1.555-0.878-2.121c-0.278-0.279-0.608-0.501-0.972-0.652s-0.754-0.228-1.148-0.227h-0.019zM17 5c0 0.267-0.104 0.518-0.311 0.725l-2.689 2.825-2.707-2.843c-0.189-0.189-0.293-0.44-0.293-0.707s0.104-0.518 0.294-0.708c0.181-0.184 0.427-0.289 0.685-0.292 0.025 0.001 0.502 0.032 1.067 0.485 0.081 0.065 0.163 0.139 0.247 0.222l0.707 0.707 0.707-0.707c0.084-0.083 0.166-0.157 0.247-0.222 0.529-0.425 0.976-0.478 1.052-0.484 0.13-0 0.259 0.026 0.38 0.076s0.229 0.124 0.321 0.216c0.189 0.189 0.293 0.44 0.293 0.707z"></path>
    </symbol>
    <symbol id="icon-mail" viewBox="0 0 24 24">
        <path d="M20 4h-16c-1.103 0-2 0.897-2 2v12c0 1.103 0.897 2 2 2h16c1.103 0 2-0.897 2-2v-12c0-1.103-0.897-2-2-2zM20 6v0.511l-8 6.223-8-6.222v-0.512h16zM4 18v-8.956l7.386 5.745c0.175 0.138 0.391 0.212 0.614 0.212s0.439-0.075 0.614-0.212l7.386-5.745 0.002 8.956h-16.002z"></path>
    </symbol>
    <symbol id="icon-Facebook" viewBox="0 0 24 24">
        <path d="M22 12.304c0-5.557-4.477-10.061-10-10.061s-10 4.505-10 10.061c0 5.022 3.657 9.184 8.438 9.939v-7.031h-2.539v-2.908h2.539v-2.217c0-2.522 1.493-3.914 3.777-3.914 1.094 0 2.238 0.197 2.238 0.197v2.476h-1.261c-1.242 0-1.63 0.776-1.63 1.571v1.887h2.773l-0.443 2.908h-2.33v7.031c4.781-0.755 8.438-4.917 8.438-9.939z"></path>
    </symbol>
    <symbol id="icon-Instagram" viewBox="0 0 24 24">
        <path d="M11.999 4.621c2.404 0 2.689 0.011 3.634 0.053 0.879 0.039 1.353 0.186 1.67 0.309 0.419 0.162 0.72 0.359 1.033 0.672 0.317 0.317 0.51 0.615 0.675 1.034 0.123 0.317 0.27 0.794 0.309 1.67 0.042 0.949 0.053 1.234 0.053 3.635s-0.011 2.689-0.053 3.635c-0.039 0.879-0.186 1.353-0.309 1.67-0.162 0.418-0.358 0.72-0.672 1.033-0.317 0.317-0.615 0.51-1.033 0.675-0.317 0.123-0.795 0.27-1.67 0.309-0.949 0.042-1.234 0.053-3.635 0.053s-2.689-0.011-3.635-0.053c-0.879-0.039-1.353-0.186-1.67-0.309-0.418-0.162-0.72-0.358-1.034-0.672-0.317-0.317-0.51-0.615-0.675-1.033-0.123-0.317-0.271-0.795-0.309-1.67-0.042-0.949-0.053-1.234-0.053-3.635s0.011-2.689 0.053-3.635c0.039-0.879 0.186-1.353 0.309-1.67 0.162-0.418 0.359-0.72 0.672-1.034 0.317-0.317 0.615-0.51 1.034-0.675 0.317-0.123 0.794-0.271 1.67-0.309 0.945-0.042 1.231-0.053 3.635-0.053h0.001zM11.999 3.001c-2.443 0-2.749 0.011-3.709 0.053-0.956 0.042-1.614 0.197-2.183 0.418-0.594 0.232-1.097 0.538-1.596 1.040-0.503 0.499-0.809 1.002-1.040 1.592-0.222 0.573-0.376 1.227-0.418 2.183-0.042 0.963-0.053 1.269-0.053 3.712s0.011 2.748 0.053 3.709c0.042 0.956 0.197 1.614 0.418 2.183 0.232 0.594 0.538 1.097 1.040 1.596 0.499 0.499 1.002 0.809 1.592 1.037 0.573 0.222 1.227 0.376 2.183 0.418 0.96 0.042 1.265 0.053 3.709 0.053s2.749-0.011 3.709-0.053c0.956-0.042 1.614-0.197 2.183-0.418 0.591-0.228 1.093-0.538 1.592-1.037s0.809-1.002 1.037-1.592c0.222-0.573 0.376-1.227 0.418-2.183 0.042-0.96 0.053-1.266 0.053-3.709s-0.011-2.749-0.053-3.709c-0.042-0.956-0.197-1.614-0.418-2.183-0.222-0.598-0.528-1.1-1.030-1.6-0.499-0.499-1.002-0.809-1.592-1.037-0.573-0.222-1.227-0.376-2.183-0.418-0.963-0.046-1.269-0.056-3.712-0.056l-0.001 0.001z"></path>
        <path d="M11.998 7.377c-2.552 0-4.623 2.070-4.623 4.623s2.070 4.623 4.623 4.623c2.552 0 4.623-2.070 4.623-4.623s-2.070-4.623-4.623-4.623zM11.998 14.998c-1.656 0-2.998-1.342-2.998-2.998s1.343-2.998 2.998-2.998c1.656 0 2.998 1.343 2.998 2.998s-1.343 2.998-2.998 2.998z"></path>
        <path d="M17.882 7.194c0 0.596-0.483 1.079-1.079 1.079s-1.079-0.483-1.079-1.079 0.483-1.079 1.079-1.079c0.596 0 1.079 0.483 1.079 1.079z"></path>
    </symbol>
    <symbol id="icon-LinkedIn" viewBox="0 0 24 24">
        <path d="M19.313 3h-14.625c-0.928 0-1.688 0.759-1.688 1.688v14.625c0 0.928 0.759 1.688 1.688 1.688h14.625c0.928 0 1.688-0.759 1.688-1.688v-14.625c0-0.928-0.759-1.688-1.688-1.688zM9.75 17.625h-2.25v-7.875h2.25v7.875zM8.625 8.625c-0.622 0-1.125-0.503-1.125-1.125s0.503-1.125 1.125-1.125c0.622 0 1.125 0.503 1.125 1.125s-0.503 1.125-1.125 1.125zM17.625 17.625h-2.25v-4.5c0-0.622-0.503-1.125-1.125-1.125s-1.125 0.503-1.125 1.125v4.5h-2.25v-7.875h2.25v1.396c0.464-0.636 1.174-1.396 1.969-1.396 1.399 0 2.531 1.259 2.531 2.813v5.063z"></path>
    </symbol>
    <symbol id="icon-leaf" viewBox="0 0 24 24">
        <path d="M21.88 2.15l-1.2 0.4c-2.057 0.715-4.253 0.934-6.41 0.64-2.267-0.352-4.587-0.039-6.68 0.9-1.11 0.472-2.083 1.215-2.833 2.16s-1.25 2.062-1.457 3.25c-0.211 1.142-0.189 2.316 0.063 3.45s0.731 2.205 1.407 3.15c-0.060 0.21-0.12 0.42-0.17 0.63-0.406 1.727-0.608 3.496-0.6 5.27h2c0.094-1.452 0.291-2.896 0.59-4.32 1.387 0.749 2.943 1.131 4.52 1.11 1.47-0.001 2.926-0.297 4.28-0.87 7.61-3.25 6.61-14.060 6.61-14.51l-0.12-1.26zM14.61 16.080c-2.61 1.11-5.73 0.92-7.48-0.45 0.296-0.989 0.702-1.942 1.21-2.84 0.395-0.647 0.861-1.247 1.39-1.79 0.54-0.549 1.148-1.026 1.81-1.42 1.367-0.817 2.883-1.355 4.46-1.58v-1c-1.814-0.063-3.617 0.307-5.26 1.080-1.68 0.82-3.104 2.081-4.12 3.65-0.377 0.599-0.711 1.224-1 1.87-0.463-1.186-0.595-2.475-0.38-3.73 0.141-0.878 0.503-1.707 1.052-2.406s1.268-1.248 2.088-1.594c1.196-0.559 2.5-0.846 3.82-0.84 0.62 0 1.23 0.060 1.87 0.11 2.004 0.259 4.039 0.14 6-0.35-0.070 2.76-0.57 9.21-5.46 11.29z"></path>
    </symbol>
    <symbol id="icon-map" viewBox="0 0 24 24">
        <path d="M12 14c2.206 0 4-1.794 4-4s-1.794-4-4-4c-2.206 0-4 1.794-4 4s1.794 4 4 4zM12 8c1.103 0 2 0.897 2 2s-0.897 2-2 2c-1.103 0-2-0.897-2-2s0.897-2 2-2z"></path>
        <path d="M11.42 21.814c0.169 0.121 0.372 0.186 0.58 0.186s0.411-0.065 0.58-0.186c0.304-0.215 7.449-5.374 7.42-11.814 0-4.411-3.589-8-8-8s-8 3.589-8 7.995c-0.029 6.445 7.116 11.604 7.42 11.819zM12 4c3.309 0 6 2.691 6 6.005 0.021 4.438-4.388 8.423-6 9.73-1.611-1.308-6.021-5.294-6-9.735 0-3.309 2.691-6 6-6z"></path>
    </symbol>
    <symbol id="icon-menu" viewBox="0 0 24 24">
        <path d="M4 6h16v2h-16v-2zM4 11h16v2h-16v-2zM4 16h16v2h-16v-2z"></path>
    </symbol>
    <symbol id="icon-phone" viewBox="0 0 24 24">
        <path d="M17.707 12.293c-0.093-0.093-0.203-0.167-0.324-0.217s-0.251-0.076-0.383-0.076c-0.131 0-0.261 0.026-0.383 0.076s-0.231 0.124-0.324 0.217l-1.594 1.594c-0.739-0.22-2.118-0.72-2.992-1.594s-1.374-2.253-1.594-2.992l1.594-1.594c0.093-0.093 0.167-0.203 0.217-0.324s0.076-0.251 0.076-0.383c0-0.131-0.026-0.261-0.076-0.383s-0.124-0.232-0.217-0.324l-4-4c-0.093-0.093-0.203-0.167-0.324-0.217s-0.251-0.076-0.383-0.076c-0.131 0-0.261 0.026-0.383 0.076s-0.232 0.124-0.324 0.217l-2.712 2.712c-0.38 0.38-0.594 0.902-0.586 1.435 0.023 1.424 0.4 6.37 4.298 10.268s8.844 4.274 10.269 4.298h0.028c0.528 0 1.027-0.208 1.405-0.586l2.712-2.712c0.093-0.093 0.167-0.203 0.217-0.324s0.076-0.251 0.076-0.383c0-0.131-0.026-0.261-0.076-0.383s-0.124-0.232-0.217-0.324l-4-4.001zM17.58 19.005c-1.248-0.021-5.518-0.356-8.873-3.712-3.366-3.366-3.692-7.651-3.712-8.874l2.005-2.005 2.586 2.586-1.293 1.293c-0.118 0.117-0.204 0.262-0.251 0.422s-0.055 0.328-0.021 0.49c0.024 0.115 0.611 2.842 2.271 4.502s4.387 2.247 4.502 2.271c0.163 0.035 0.331 0.028 0.491-0.019s0.304-0.134 0.421-0.252l1.294-1.293 2.586 2.586-2.006 2.005z"></path>
    </symbol>
    <symbol id="icon-star-f" viewBox="0 0 24 24">
        <path d="M10.885 0.778c0.413-1.037 1.817-1.037 2.23 0l2.434 6.123c0.174 0.437 0.567 0.736 1.019 0.774l6.319 0.53c1.071 0.090 1.505 1.487 0.689 2.218l-4.815 4.314c-0.344 0.308-0.494 0.792-0.389 1.252l1.471 6.45c0.249 1.093-0.887 1.957-1.804 1.371l-5.41-3.457c-0.387-0.247-0.873-0.247-1.259 0l-5.41 3.457c-0.917 0.586-2.053-0.278-1.804-1.371l1.471-6.45c0.105-0.461-0.045-0.944-0.389-1.252l-4.815-4.314c-0.816-0.731-0.382-2.129 0.689-2.218l6.319-0.53c0.451-0.038 0.845-0.337 1.018-0.774l2.435-6.123z"></path>
    </symbol>
    <symbol id="icon-star-o" viewBox="0 0 24 24">
        <path stroke-linejoin="miter" stroke-linecap="butt" stroke-miterlimit="4" stroke-width="2" d="M12 1c0.038 0 0.072 0.011 0.099 0.028 0.023 0.015 0.058 0.047 0.087 0.119l2.435 6.123c0.307 0.772 1.017 1.329 1.864 1.4l6.319 0.53c0.049 0.004 0.078 0.020 0.102 0.040 0.028 0.025 0.060 0.068 0.079 0.129 0.039 0.126 0.006 0.236-0.075 0.309l-4.815 4.313c-0.622 0.558-0.881 1.415-0.697 2.22l1.472 6.45c0.032 0.14-0.021 0.24-0.096 0.297-0.038 0.029-0.073 0.039-0.098 0.041-0.018 0.001-0.048-0.001-0.098-0.032l-5.41-3.456c-0.715-0.457-1.621-0.457-2.336 0l-5.41 3.456c-0.049 0.031-0.080 0.033-0.098 0.032-0.024-0.002-0.059-0.012-0.098-0.041-0.075-0.057-0.128-0.157-0.096-0.297l1.472-6.45c0.184-0.805-0.075-1.662-0.697-2.22l-4.814-4.313c-0.081-0.073-0.114-0.183-0.075-0.309 0.019-0.061 0.051-0.104 0.079-0.129 0.023-0.020 0.052-0.036 0.102-0.040l6.319-0.53c0.848-0.071 1.557-0.628 1.864-1.4l2.435-6.123c0.029-0.072 0.064-0.104 0.087-0.119 0.027-0.018 0.061-0.028 0.099-0.028z"></path>
    </symbol>
    <symbol id="icon-X" viewBox="0 0 24 24">
        <path d="M17.176 4.243h2.76l-6.030 6.777 7.094 9.223h-5.554l-4.35-5.593-4.978 5.593h-2.762l6.45-7.249-6.805-8.751h5.695l3.932 5.113 4.548-5.113zM16.207 18.618h1.53l-9.872-12.836h-1.641l9.984 12.836z"></path>
    </symbol>
    <symbol id="icon-Youtube" viewBox="0 0 24 24">
        <path d="M21.593 7.203c-0.114-0.423-0.336-0.808-0.646-1.118s-0.694-0.533-1.116-0.648c-1.566-0.43-7.831-0.437-7.831-0.437s-6.264-0.007-7.831 0.404c-0.422 0.12-0.806 0.347-1.115 0.658s-0.533 0.697-0.651 1.12c-0.413 1.566-0.417 4.814-0.417 4.814s-0.004 3.264 0.406 4.814c0.23 0.857 0.905 1.534 1.763 1.765 1.582 0.43 7.83 0.437 7.83 0.437s6.265 0.007 7.831-0.403c0.423-0.115 0.808-0.338 1.118-0.647s0.534-0.694 0.649-1.116c0.414-1.565 0.417-4.812 0.417-4.812s0.020-3.265-0.407-4.831zM9.996 15.005l0.005-6 5.207 3.005-5.212 2.995z"></path>
    </symbol>
    <symbol id="icon-close" viewBox="0 0 32 32">
    <path d="M32 3.223l-3.223-3.223-12.777 12.777-12.777-12.777-3.223 3.223 12.777 12.777-12.777 12.777 3.223 3.223 12.777-12.777 12.777 12.777 3.223-3.223-12.777-12.777 12.777-12.777z"></path>
    </symbol>
</defs>
</svg>
